# xmcd
#
# Track frame offsets: 
#        150
#        19310
#        31656
#        49383
#        67359
#        84295
#        96259
#        120289
#        130996
#        145242
#        159265
#        170476
#        186356
#        199847
#        210355
#        223844
#        243948
#        255195
#        267042
#        278984
#        296583
#        306392
#        331639
#        341381
#
# Disc length: 4671 seconds
#
# Revision: 0
# Processed by: cddbd v1.5.2PL0 Copyright (c) Steve Scherf et al.
# Submitted via: ExactAudioCopyFreeDBPlugin 1.0
#
DISCID=5f123d18
DTITLE=The Earl Scruggs Revue - Live At Kansas State and The Earl Scrugg
DTITLE=s Revue
DYEAR=2017
DGENRE=Country
TTITLE0=T For Texas
TTITLE1=Bound In Jail All Night Long (Paul An Silas)
TTITLE2=Rambling 'Round Your City (Ramblin' Round)
TTITLE3=Sally Gooding
TTITLE4=Most Likely You Go Your Way (And I'll Go Mine)
TTITLE5=Carolina Boogie
TTITLE6=Everybody Wants To Go To Heaven
TTITLE7=You Ain't Going Nowhere
TTITLE8=Both Sides Now
TTITLE9=Good Woman's Love
TTITLE10=Bugle Call Rag
TTITLE11=Foggy Mountain Breakdown
TTITLE12=If I'd Only Come And Gone
TTITLE13=Tears
TTITLE14=Some Of Shelley's Blues
TTITLE15=It Takes A Lot To Laugh, It Takes A Train To Cry
TTITLE16=Step It Up And Go
TTITLE17=Back Slider's Wine
TTITLE18=Down In The Flood
TTITLE19=Love In My Time
TTITLE20=Holiday Hotel
TTITLE21=Come On Train
TTITLE22=Salty Dog Blues
TTITLE23=Station Break
EXTD=
EXTT0=
EXTT1=
EXTT2=
EXTT3=
EXTT4=
EXTT5=
EXTT6=
EXTT7=
EXTT8=
EXTT9=
EXTT10=
EXTT11=
EXTT12=
EXTT13=
EXTT14=
EXTT15=
EXTT16=
EXTT17=
EXTT18=
EXTT19=
EXTT20=
EXTT21=
EXTT22=
EXTT23=
PLAYORDER=
